<mxfile host="app.diagrams.net" modified="2023-08-07T21:08:00.777Z" agent="Mozilla/5.0 (Windows NT 10.0; Win64; x64) AppleWebKit/537.36 (KHTML, like Gecko) Chrome/115.0.0.0 Safari/537.36" version="21.6.6" etag="-MGTtALKshf0KxHQ3Ykg" type="github">
  <diagram name="Page-1" id="iwQtfFKxiG3r-ckgYFg_">
    <mxGraphModel>
      <root>
        <mxCell id="0" />
        <mxCell id="1" parent="0" />
      </root>
    </mxGraphModel>
  </diagram>
</mxfile>
